# xmcd CD database file
#
# Track frame offsets:
#	150
#	8047
#	19570
#	32987
#	44367
#	59762
#	76512
#	88977
#	101845
#	113525
#	127190
#	138610
#	158192
#	172490
#	190227
#	201597
#	215325
#	222512
#	235342
#	245362
#
# Disc length: 3346 seconds
#
# Revision: 0
# Processed by: cddbd v1.5.2PL0 Copyright (c) Steve Scherf et al.
# Submitted via: CDex 1.51
#
DISCID=2c0d1014
DTITLE=Bill Grah Sextett - Tanz mit dem in der Axamer Lizum
DYEAR=1993
DGENRE=Jazz
TTITLE0=cheek to cheek
TTITLE1=empty Pockets
TTITLE2=Alexander Rag Time Band
TTITLE3=que simpatico
TTITLE4=schöner Gigolo
TTITLE5=get happy
TTITLE6=i'll see you in my Dreams
TTITLE7=Hallelujah
TTITLE8=Pony Express
TTITLE9=ain't she sweet
TTITLE10=Vava, Didi, Pele
TTITLE11=i cover the Waterfront
TTITLE12=Tiger Rag
TTITLE13=One Note Sama
TTITLE14=Lover come back to me
TTITLE15=Pollilo
TTITLE16=Twelfth Street Rag
TTITLE17=Goody Goody
TTITLE18=Dankeschön
TTITLE19=Thema
EXTD=YEAR: 1993
EXTT0=
EXTT1=
EXTT2=
EXTT3=
EXTT4=
EXTT5=
EXTT6=
EXTT7=
EXTT8=
EXTT9=
EXTT10=
EXTT11=
EXTT12=
EXTT13=
EXTT14=
EXTT15=
EXTT16=
EXTT17=
EXTT18=
EXTT19=
PLAYORDER=
